# xmcd CD database file
#
# Track frame offsets:
#	150
#	20037
#	39485
#	57814
#	76782
#	96005
#	116395
#	133637
#	153265
#	171947
#	188092
#	200975
#	219630
#
# Disc length: 3044 seconds
#
# Revision: 1
# Processed by: cddbd v1.5.2PL0 Copyright (c) Steve Scherf et al.
# Submitted via: CDex 1.60beta1
#
DISCID=ad0be20d
DTITLE=Amaury Gutierrez - Piedras Y Flores
DYEAR=2002
DGENRE=Latin
TTITLE0=Aguita De Tu Boca
TTITLE1=Regresa Pronto
TTITLE2=Dime Corazon
TTITLE3=Me Dejo Picao
TTITLE4=Guardian De Tus Suenos
TTITLE5=Tenerte A Ti
TTITLE6=Son Tus Ojos
TTITLE7=Yo No Soy
TTITLE8=Hace Tiempo
TTITLE9=Piedras Y Flores
TTITLE10=Son De La Loma
TTITLE11=Amor Espiritual
TTITLE12=Guajira Con Tumbao
EXTD=YEAR: 2002
EXTT0=
EXTT1=
EXTT2=
EXTT3=
EXTT4=
EXTT5=
EXTT6=
EXTT7=
EXTT8=
EXTT9=
EXTT10=
EXTT11=
EXTT12=
PLAYORDER=
